<?xml version="1.0" standalone="no"?>
<!DOCTYPE svg PUBLIC "-//W3C//DTD SVG 20010904//EN"
 "http://www.w3.org/TR/2001/REC-SVG-20010904/DTD/svg10.dtd">
<svg version="1.0" xmlns="http://www.w3.org/2000/svg"
 width="400.000000pt" height="400.000000pt" viewBox="0 0 400.000000 400.000000"
 preserveAspectRatio="xMidYMid meet">

<g transform="translate(0.000000,400.000000) scale(0.100000,-0.100000)"
fill="#000000" stroke="none">
<path d="M1599 3937 c-147 -30 -159 -42 -169 -175 -4 -45 -9 -85 -12 -88 -5
-5 -186 -74 -194 -74 -1 0 -33 25 -69 55 -55 45 -74 55 -105 55 -44 0 -128
-44 -221 -116 l-61 -47 6 -54 c3 -30 13 -70 21 -90 25 -60 20 -74 -59 -152
l-75 -74 -43 16 c-65 24 -136 38 -163 31 -16 -4 -42 -34 -78 -87 -115 -176
-116 -178 -57 -258 78 -108 77 -97 27 -207 l-43 -97 -75 -6 c-41 -4 -89 -14
-106 -22 -28 -15 -33 -25 -51 -104 -11 -49 -23 -115 -27 -149 l-7 -61 41 -32
c23 -18 39 -37 35 -42 -3 -5 -23 -9 -44 -9 -41 0 -70 -8 -70 -19 0 -4 39 -2
88 3 124 14 295 9 305 -10 4 -8 17 -14 27 -14 11 0 20 -4 20 -9 0 -11 -121 -2
-137 11 -7 6 -21 7 -30 2 -30 -13 -57 -14 -80 -2 -17 8 -45 8 -107 -1 l-84
-13 4 -76 c25 -422 75 -644 211 -921 99 -203 181 -317 358 -499 161 -167 297
-267 516 -380 280 -144 572 -215 874 -213 88 1 172 3 185 6 14 2 75 11 136 19
472 68 919 318 1224 686 277 334 444 772 451 1180 1 90 8 118 27 123 15 4 15
5 0 6 -22 1 -24 21 -3 21 28 0 15 27 -17 37 l-33 10 35 16 34 15 -43 12 c-23
6 -48 9 -54 6 -7 -2 -2 -5 10 -5 30 -1 36 -15 15 -33 -13 -12 -55 -17 -172
-22 -85 -3 -166 -8 -180 -10 -14 -2 -50 -7 -80 -10 -181 -20 -239 -27 -321
-37 -77 -9 -114 -8 -98 4 42 32 115 69 143 74 40 6 45 -1 19 -29 -26 -29 -9
-30 33 -1 21 14 57 32 79 40 l40 13 -47 -5 c-26 -2 -50 -1 -53 4 -6 11 -62 5
-179 -20 -51 -11 -92 -15 -95 -10 -4 5 -37 25 -74 45 -37 19 -91 53 -119 75
-28 23 -54 41 -58 41 -25 0 -254 198 -315 272 -159 193 -187 236 -258 389 -52
113 -60 132 -87 229 -31 111 -71 220 -81 220 -5 0 -9 -5 -9 -10 0 -6 -20 -53
-45 -106 -25 -52 -45 -100 -45 -106 0 -15 -78 -178 -95 -198 -7 -8 -16 -25
-19 -37 -6 -20 -108 -178 -136 -210 -5 -7 -15 -24 -22 -38 -6 -14 -15 -25 -20
-25 -4 0 -8 -7 -8 -15 0 -8 -4 -15 -8 -15 -5 0 -29 -28 -54 -62 -110 -149
-266 -274 -461 -368 -37 -18 -70 -36 -73 -41 -3 -5 -14 -9 -25 -9 -11 0 -18
-4 -15 -9 3 -5 25 -9 48 -9 68 -1 178 -32 245 -69 35 -19 65 -39 69 -44 7 -12
24 -12 24 0 0 6 -13 18 -30 28 -32 19 -42 40 -12 28 9 -4 55 -9 100 -10 78 -3
91 -7 178 -51 52 -26 94 -51 94 -56 0 -4 15 -22 33 -39 l32 -30 -30 4 c-63 10
-199 56 -207 71 -5 9 -14 16 -19 16 -6 0 -30 13 -54 30 -24 16 -47 30 -51 30
-13 0 20 -32 50 -47 47 -25 15 -28 -78 -8 -45 9 -91 19 -103 21 -13 2 -23 10
-23 17 0 6 -27 26 -60 44 -33 17 -60 28 -60 24 0 -4 23 -20 50 -35 51 -28 59
-46 18 -40 -187 30 -262 45 -271 52 -21 17 -107 51 -107 43 0 -4 12 -13 26
-20 39 -17 24 -23 -43 -16 -44 5 -63 12 -72 27 -16 25 -10 30 34 32 20 1 40 8
45 15 5 8 18 12 34 9 14 -3 26 -1 26 3 0 5 -15 9 -32 9 -18 0 -43 3 -55 6 -17
5 -23 2 -23 -10 0 -13 -19 -15 -155 -11 -160 4 -216 -7 -97 -19 76 -8 142 -25
142 -38 0 -4 -21 -6 -48 -3 -26 3 -66 7 -90 9 -30 2 -49 11 -66 29 -12 13 -33
28 -45 32 -22 7 -22 10 -16 83 4 43 11 91 15 107 34 122 69 215 115 310 29 61
62 131 74 157 12 25 38 67 57 92 18 24 34 48 34 51 0 7 67 89 120 148 45 49
128 129 152 145 13 8 39 29 58 47 33 30 95 69 201 128 55 31 229 101 316 128
238 74 575 88 798 32 33 -8 85 -21 116 -29 59 -14 253 -95 304 -125 17 -10 44
-26 60 -35 126 -70 354 -284 472 -444 65 -88 147 -242 188 -350 10 -25 21 -54
26 -65 17 -43 51 -214 56 -286 l6 -77 -74 -12 c-91 -14 -104 -18 -61 -19 31
-1 42 -14 22 -26 -12 -7 -13 -25 -2 -25 4 0 22 13 39 29 31 28 124 58 143 46
5 -3 11 -1 14 4 3 5 -1 11 -9 15 -10 4 -15 20 -15 50 0 113 -109 441 -198 596
-45 79 -148 221 -164 228 -5 2 -8 7 -8 11 0 17 -195 203 -272 260 -287 214
-650 331 -1028 331 -279 0 -602 -101 -860 -268 -105 -68 -246 -188 -325 -277
-189 -212 -334 -504 -385 -770 -35 -184 -27 -170 -96 -167 -64 3 -133 31 -172
71 -21 21 -22 29 -16 80 6 54 25 139 39 173 10 25 51 35 127 32 43 -1 71 2 75
9 10 15 103 226 110 249 3 12 -12 35 -47 70 -58 59 -72 85 -63 119 13 48 103
183 133 199 13 7 39 3 92 -15 40 -14 84 -25 97 -25 17 0 51 28 122 101 l97
100 -24 59 c-13 33 -24 75 -24 94 0 39 16 55 129 130 86 57 102 55 183 -22
l58 -55 47 17 c27 10 62 24 78 31 17 7 56 24 87 37 32 13 60 30 64 38 3 8 8
44 10 80 6 95 17 116 67 128 72 19 101 24 153 28 61 6 70 -2 111 -101 l30 -70
150 -2 c170 -3 163 -7 192 79 27 78 55 108 95 102 94 -16 217 -48 223 -58 4
-6 8 -40 9 -76 1 -36 2 -77 3 -92 1 -22 10 -32 41 -48 21 -11 44 -20 49 -20 6
0 43 -16 84 -35 41 -19 82 -35 92 -35 20 0 85 40 85 52 0 4 19 20 43 36 l43
30 37 -18 c21 -10 69 -42 108 -71 69 -51 71 -53 64 -88 -3 -20 -17 -60 -31
-90 -13 -29 -24 -62 -24 -73 0 -10 39 -59 88 -110 100 -103 106 -105 195 -64
59 27 84 31 102 18 20 -13 102 -126 124 -170 26 -51 21 -64 -47 -134 -36 -37
-46 -55 -46 -80 1 -36 81 -248 98 -260 6 -4 27 -8 47 -8 20 0 57 -3 83 -6 58
-8 67 -24 89 -147 15 -81 15 -90 1 -112 -23 -36 -76 -65 -117 -65 -43 0 -69
-9 -61 -21 2 -5 0 -18 -6 -30 -18 -33 -4 -33 31 0 25 25 41 31 75 31 46 0 69
-18 35 -27 -25 -6 -28 -23 -5 -23 26 0 96 43 83 51 -8 5 -3 19 16 44 l29 37
-13 76 c-15 90 -30 158 -42 190 -11 28 -39 39 -142 55 -81 12 -82 12 -102 52
-25 48 -55 126 -55 143 0 6 27 41 60 78 73 80 75 101 23 188 -63 104 -142 206
-161 206 -9 0 -53 -11 -97 -25 -44 -14 -86 -25 -93 -25 -12 0 -100 82 -130
121 -10 13 -7 30 13 86 40 117 42 143 9 183 -43 50 -170 130 -208 130 -40 -1
-103 -30 -162 -74 -26 -20 -51 -36 -57 -36 -21 0 -197 83 -198 94 -1 6 -1 32
1 59 1 26 -4 70 -10 98 -11 44 -17 53 -48 66 -43 18 -219 53 -266 53 -42 0
-76 -37 -101 -107 -36 -101 -28 -94 -92 -89 -32 3 -81 5 -110 5 l-52 1 -35 74
c-41 84 -74 116 -120 115 -17 0 -79 -10 -137 -22z m462 -742 c19 -77 70 -218
104 -291 19 -41 35 -77 35 -79 0 -8 131 -204 174 -260 72 -95 259 -264 376
-339 201 -129 203 -133 113 -150 -10 -2 -45 -11 -78 -20 -68 -17 -161 -18
-175 -2 -5 7 -18 47 -30 90 -25 93 -30 104 -85 176 -135 175 -276 250 -475
252 -118 1 -153 -8 -300 -75 -54 -26 -170 -137 -198 -193 -11 -22 -33 -78 -47
-123 -25 -76 -30 -84 -62 -98 -41 -17 -55 -18 -103 -9 -39 7 -168 36 -187 41
-26 8 1 34 89 86 115 67 229 153 289 215 148 156 296 375 390 574 17 36 35 73
40 82 5 10 9 23 9 31 0 7 9 29 20 50 11 20 20 42 20 48 0 6 10 25 22 41 20 29
22 30 35 12 7 -10 18 -37 24 -59z m138 -672 c157 -51 281 -178 340 -348 17
-49 31 -98 31 -108 0 -28 -47 -83 -96 -112 -24 -14 -44 -30 -44 -36 0 -11 27
2 87 43 39 26 148 68 179 68 32 0 20 -21 -25 -44 -27 -14 -53 -31 -57 -37 -9
-14 -8 -14 107 44 91 46 197 82 208 71 8 -7 -36 -40 -81 -60 -21 -9 -38 -22
-38 -29 0 -7 -34 -19 -82 -29 -46 -9 -117 -24 -158 -33 -134 -28 -433 -104
-520 -133 -47 -15 -86 -27 -88 -25 -18 16 95 124 117 111 4 -3 26 8 47 24 21
16 48 30 59 30 11 0 44 14 74 30 30 17 56 28 59 25 4 -4 -36 -41 -77 -72 -9
-6 -13 -14 -9 -18 4 -4 33 11 65 34 32 22 80 48 107 57 l49 17 -32 13 c-28 12
-38 11 -68 -1 -48 -20 -53 -19 -53 10 0 79 -70 178 -167 239 -27 16 -43 34
-43 45 0 39 -27 52 -101 48 -38 -1 -71 -5 -73 -8 -3 -2 -7 -17 -10 -33 -3 -16
-16 -41 -29 -55 -60 -65 -105 -139 -117 -191 -23 -105 -31 -107 -158 -45 -51
25 -100 45 -107 45 -27 0 -25 38 5 119 16 45 35 92 41 104 13 25 90 120 101
125 4 2 26 19 50 38 49 39 171 93 237 104 70 12 188 1 270 -27z m-144 -223 c9
-17 35 -42 58 -56 23 -15 57 -40 75 -57 36 -34 82 -126 82 -163 0 -26 -34 -54
-67 -54 -13 0 -45 -13 -71 -30 -27 -16 -53 -30 -59 -30 -5 0 -27 -18 -48 -40
-24 -25 -45 -38 -54 -35 -23 9 -170 109 -171 116 0 3 18 12 41 19 26 9 57 32
85 63 40 45 44 54 44 101 0 58 -16 126 -30 126 -15 0 -12 58 3 63 6 3 31 6 54
6 37 1 44 -3 58 -29z m1059 -221 c-3 -6 -17 -15 -31 -20 -14 -5 -27 -18 -30
-29 -3 -11 -7 -20 -10 -20 -2 0 -38 -7 -79 -16 -42 -8 -83 -14 -91 -12 -29 5
66 62 151 89 79 26 103 28 90 8z m-2799 -16 c15 -5 14 -8 -6 -19 -23 -13 -22
-13 11 -7 19 3 40 10 47 15 15 12 173 -1 173 -14 0 -4 -14 -11 -30 -15 -17 -3
-33 -10 -36 -14 -7 -13 -1 -12 66 12 55 19 67 20 130 9 75 -13 88 -24 40 -35
-16 -4 -32 -10 -35 -15 -6 -10 43 3 74 20 22 11 125 6 180 -10 l26 -7 -25 -10
c-14 -6 -32 -13 -40 -16 -36 -13 20 -6 60 8 47 16 108 19 128 6 10 -6 5 -14
-21 -30 -19 -11 -39 -21 -46 -21 -6 0 -11 -5 -11 -10 0 -7 6 -7 18 -2 9 5 40
20 69 34 l52 26 78 -17 c43 -10 77 -21 76 -26 0 -5 -23 -19 -50 -31 -26 -12
-43 -23 -37 -23 16 -1 86 29 104 44 12 11 27 10 88 -4 40 -9 73 -21 73 -27 0
-5 -23 -16 -53 -26 -29 -9 -46 -16 -37 -17 9 -1 47 8 84 20 59 18 74 19 112 9
23 -7 43 -16 43 -19 0 -4 -28 -21 -62 -39 -36 -19 -51 -30 -36 -27 15 3 50 19
78 35 59 35 65 35 116 14 37 -16 38 -17 17 -25 -62 -24 -69 -29 -33 -24 111
17 126 17 168 -1 50 -22 53 -38 10 -64 -29 -17 -44 -19 -113 -14 -44 4 -87 8
-95 10 -8 1 -19 3 -24 3 -6 1 -1 8 10 16 18 15 16 15 -26 8 -48 -8 -178 -5
-194 4 -5 3 1 11 14 18 19 10 6 13 -84 18 -58 3 -111 9 -117 12 -7 5 -4 14 8
27 18 20 18 20 -83 13 -67 -4 -104 -3 -108 3 -3 6 3 13 14 17 47 15 13 21 -91
17 -82 -3 -110 -2 -105 7 4 6 18 11 32 11 13 0 24 4 24 8 0 5 -44 7 -97 5
-101 -5 -174 5 -174 22 0 6 12 11 26 13 14 2 25 7 25 11 0 4 -38 2 -85 -4 -89
-12 -195 -9 -195 6 0 5 23 9 50 9 28 0 50 5 50 10 0 12 -39 12 -98 1 -23 -5
-44 -5 -47 -1 -3 4 -27 10 -54 12 -50 5 -117 38 -93 46 32 10 4 17 -78 17 -58
0 -93 4 -102 13 -10 9 12 12 109 12 67 0 129 -3 138 -7z m3335 -3 c0 -5 -13
-10 -29 -10 -16 0 -43 -3 -60 -6 -19 -4 -31 -2 -31 4 0 6 21 13 48 15 26 2 53
4 60 5 6 1 12 -2 12 -8z m-2923 -16 c-3 -3 -12 -4 -19 -1 -8 3 -5 6 6 6 11 1
17 -2 13 -5z m3230 -10 c2 -6 -6 -15 -19 -18 -14 -5 -18 -9 -10 -13 27 -11 6
-277 -39 -473 -47 -204 -169 -475 -298 -662 -192 -276 -490 -522 -797 -656
-272 -119 -518 -172 -803 -172 -148 0 -315 17 -441 46 -80 19 -198 52 -225 64
-11 5 -31 12 -45 16 -58 15 -292 137 -384 198 -136 92 -195 142 -304 257 -176
185 -280 330 -367 514 -92 194 -167 478 -185 697 -7 90 -5 196 4 206 2 1 29
-4 62 -13 32 -8 69 -15 82 -15 13 0 50 -12 83 -27 48 -23 59 -33 60 -53 17
-295 103 -578 251 -820 222 -365 627 -640 1083 -736 122 -26 385 -39 484 -25
180 25 358 73 483 129 24 11 65 29 92 41 138 60 343 208 462 333 64 68 194
230 194 242 0 3 17 32 37 63 53 83 107 198 134 284 12 41 30 98 40 126 10 29
28 121 39 204 11 83 22 154 25 159 7 12 61 21 148 27 55 3 77 8 77 18 0 7 6
16 13 18 6 3 -12 6 -41 6 -29 1 -69 -6 -89 -14 -19 -8 -51 -15 -70 -15 -18 0
-50 -7 -70 -15 -19 -8 -59 -15 -87 -15 -30 0 -60 -6 -72 -15 -10 -8 -39 -15
-64 -15 -25 0 -58 -7 -74 -15 -16 -9 -55 -15 -92 -15 -34 0 -65 -4 -69 -9 -3
-6 -27 -13 -53 -17 -26 -3 -52 -11 -59 -16 -6 -5 -42 -14 -79 -19 -37 -5 -73
-14 -79 -19 -6 -5 -29 -10 -50 -11 -22 -1 -49 -7 -60 -14 -11 -7 -62 -14 -113
-17 -52 -2 -97 -9 -104 -16 -7 -7 -28 -12 -48 -12 -20 0 -40 -4 -45 -9 -16
-15 -153 -26 -379 -30 -38 0 -67 -3 -64 -6 3 -3 37 -9 76 -14 51 -6 97 -22
169 -56 54 -26 123 -59 153 -73 102 -49 282 -176 294 -208 3 -7 18 -13 33 -12
26 1 135 -16 176 -28 28 -9 19 10 -15 31 -18 10 -58 38 -88 62 -30 24 -59 43
-64 43 -5 0 -23 10 -40 23 -40 31 -276 159 -343 187 -54 23 -68 39 -35 41 9 1
22 2 27 3 6 1 43 5 82 10 l72 8 65 -54 c35 -29 102 -72 148 -95 106 -53 172
-62 289 -38 171 35 266 114 364 305 32 62 53 76 135 87 41 6 77 9 79 7 2 -2
-3 -62 -12 -132 -32 -264 -137 -531 -286 -732 -138 -185 -379 -398 -503 -445
-27 -10 -48 -21 -48 -25 0 -8 -109 -59 -201 -94 -98 -37 -247 -74 -373 -92
-129 -19 -348 -14 -456 11 -36 8 -91 19 -122 25 -92 16 -281 88 -392 148 -312
168 -521 382 -676 692 -92 182 -141 366 -155 573 -7 93 -6 99 11 93 11 -3 59
-10 107 -15 95 -11 107 -15 107 -36 0 -8 11 -38 23 -67 26 -57 137 -176 217
-231 92 -64 262 -86 371 -48 88 30 217 101 235 130 10 14 25 31 33 38 21 16
64 16 79 1 8 -8 39 -11 90 -10 67 2 116 -8 102 -21 -3 -3 -50 -28 -105 -56
-117 -59 -109 -54 -336 -194 -163 -100 -240 -159 -227 -172 3 -3 25 2 49 10
24 9 74 20 112 25 66 10 71 12 180 103 182 152 301 223 525 313 65 27 93 33
129 30 48 -5 231 -9 248 -5 19 4 -91 17 -147 18 -32 1 -58 5 -58 9 0 5 24 16
53 25 40 12 80 15 170 12 65 -3 122 -7 128 -10 5 -4 9 -1 9 4 0 6 -11 11 -24
11 -36 0 -86 12 -86 20 0 13 139 22 173 11 42 -13 147 -20 141 -9 -3 4 -26 8
-52 8 -47 0 -82 13 -70 26 4 4 40 10 80 15 40 5 102 15 138 24 36 8 80 12 98
9 24 -5 36 -2 45 11 17 22 109 30 212 16 44 -5 84 -6 88 -1 10 9 -48 24 -62
16 -5 -4 -12 -2 -15 3 -11 17 153 24 209 9 11 -3 14 -3 8 -1 -18 6 -16 30 1
36 8 3 25 4 38 2 90 -13 107 -14 113 -5 3 5 33 10 65 10 38 0 60 4 62 13 3 8
47 16 129 23 146 13 171 13 176 -2z m-2984 -16 c37 -6 67 -15 67 -20 0 -5 -10
-6 -22 -3 -13 2 -68 9 -123 16 -118 13 -167 33 -60 25 39 -4 100 -11 138 -18z
m2327 3 c-23 -13 -147 -24 -135 -12 10 10 52 17 115 19 24 1 30 -1 20 -7z
m-200 -21 c0 -5 -5 -10 -11 -10 -5 0 -7 5 -4 10 3 6 8 10 11 10 2 0 4 -4 4
-10z m-1669 -60 c39 -10 74 -21 77 -25 17 -17 -245 30 -263 48 -14 13 99 -1
186 -23z m445 -64 c24 -20 44 -41 44 -46 0 -17 -30 -11 -37 8 -7 18 -32 41
-47 42 -5 0 -3 -6 3 -13 6 -8 8 -16 5 -20 -10 -10 -36 5 -70 42 -28 31 -30 37
-16 42 24 8 65 -11 118 -55z m-207 2 c39 -14 17 -20 -33 -7 -54 13 -77 35 -25
24 19 -4 45 -12 58 -17z m-799 -15 c40 -3 69 -11 77 -20 6 -8 33 -17 59 -21
47 -7 49 -9 85 -72 27 -48 38 -80 41 -122 l5 -58 -61 0 c-80 0 -114 11 -197
61 -110 66 -196 171 -158 194 5 4 15 18 20 32 8 21 14 24 37 18 15 -3 56 -9
92 -12z m2480 7 c13 -8 12 -15 -8 -54 -13 -24 -35 -54 -48 -67 l-24 -22 -15
36 c-26 62 -21 81 28 99 51 20 49 20 67 8z m-990 -50 c0 -5 -5 -10 -11 -10 -5
0 -7 5 -4 10 3 6 8 10 11 10 2 0 4 -4 4 -10z m447 -132 c7 -34 22 -75 34 -91
l22 -30 -34 7 c-35 7 -131 53 -186 90 -45 29 -43 54 5 61 20 3 55 10 77 14 71
15 69 16 82 -51z m-1347 -222 c0 -10 -154 -126 -167 -126 -29 0 -5 26 73 77
73 49 94 60 94 49z"/>
<path d="M2475 2010 c-13 -5 -14 -9 -5 -9 8 0 24 4 35 9 13 5 14 9 5 9 -8 0
-24 -4 -35 -9z"/>
<path d="M1775 1760 c-13 -6 -15 -9 -5 -9 8 0 22 4 30 9 18 12 2 12 -25 0z"/>
<path d="M1728 1743 c7 -3 16 -2 19 1 4 3 -2 6 -13 5 -11 0 -14 -3 -6 -6z"/>
<path d="M2955 1892 c29 -13 114 -24 95 -13 -8 5 -37 12 -65 15 -32 4 -43 3
-30 -2z"/>
<path d="M2771 1866 c2 -2 29 -6 59 -9 36 -4 48 -3 35 3 -19 8 -103 14 -94 6z"/>
<path d="M1925 1680 c-4 -6 10 -10 34 -10 22 0 43 5 46 10 4 6 -10 10 -34 10
-22 0 -43 -4 -46 -10z"/>
<path d="M1865 1536 c-95 -24 -230 -109 -281 -177 -111 -148 -135 -363 -58
-514 75 -147 269 -265 433 -265 241 1 449 161 486 375 18 106 3 232 -37 315
-42 87 -136 180 -228 224 -113 55 -209 68 -315 42z m290 -89 c79 -34 151 -88
167 -123 9 -19 7 -33 -7 -64 -29 -64 -72 -95 -157 -114 -90 -20 -128 -53 -158
-139 -27 -76 -25 -105 9 -158 34 -52 60 -77 124 -113 69 -39 67 -42 -49 -80
-79 -25 -120 -21 -152 13 -40 43 -89 63 -165 69 -131 9 -198 90 -196 237 0 43
3 54 9 40 7 -17 9 -17 9 -3 1 9 18 35 39 56 37 40 89 62 146 62 66 0 164 88
208 186 16 38 19 59 15 104 -4 32 -3 60 0 64 12 12 85 -5 158 -37z"/>
<path d="M370 1190 c-30 -22 -59 -42 -65 -44 -5 -2 -7 -7 -3 -11 8 -9 138 74
138 87 0 14 -15 8 -70 -32z"/>
<path d="M3529 1182 c-16 -3 -44 -50 -36 -59 2 -2 12 8 21 22 21 32 51 35 41
3 -21 -67 5 -109 44 -74 12 11 21 27 21 38 0 10 5 18 10 18 6 0 10 6 10 13 0
15 -86 45 -111 39z m70 -84 c-6 -11 -16 -17 -22 -15 -17 5 -21 36 -6 53 12 14
14 14 26 -1 9 -13 9 -23 2 -37z"/>
<path d="M403 1129 c-35 -23 -63 -46 -63 -50 0 -14 9 -11 56 22 25 17 48 29
50 26 3 -3 -8 -32 -25 -64 -42 -84 -30 -93 52 -41 62 40 80 58 58 58 -6 0 -30
-13 -54 -30 -25 -16 -48 -30 -51 -30 -4 0 7 27 24 60 29 58 37 90 23 90 -5 0
-36 -19 -70 -41z"/>
<path d="M3434 1034 c-8 -20 -14 -37 -12 -39 24 -20 92 -55 101 -52 7 2 -7 16
-31 30 -31 20 -42 34 -42 52 0 32 32 34 75 5 33 -22 45 -25 45 -10 0 13 -74
50 -100 50 -15 0 -26 -11 -36 -36z"/>
<path d="M520 1000 c-8 -15 -6 -29 5 -57 15 -35 15 -39 -1 -50 -15 -11 -21
-10 -37 5 -11 9 -23 28 -28 41 -5 13 -12 21 -16 18 -9 -10 18 -67 38 -77 55
-30 94 12 64 70 -15 29 -15 34 -1 48 14 14 17 14 36 -3 11 -10 20 -24 20 -32
0 -7 5 -13 10 -13 16 0 12 15 -11 44 -25 31 -64 34 -79 6z"/>
<path d="M3367 932 c-23 -26 -21 -55 6 -80 28 -27 68 -28 90 -4 24 27 21 58
-9 81 -33 26 -66 27 -87 3z m83 -35 c14 -26 14 -29 -3 -42 -36 -26 -95 27 -72
65 13 21 59 6 75 -23z"/>
<path d="M630 811 c-58 -52 -66 -82 -10 -34 l33 27 23 -28 c13 -15 24 -22 24
-15 0 7 -8 21 -17 31 -16 17 -16 20 1 36 16 16 19 15 42 -12 14 -15 27 -26 30
-23 7 7 -46 67 -59 67 -7 0 -37 -23 -67 -49z"/>
<path d="M3277 825 c-15 -14 -27 -32 -27 -39 0 -20 55 -76 74 -76 18 0 56 34
56 51 0 5 5 7 10 4 15 -9 12 -51 -5 -65 -9 -7 -13 -15 -10 -18 3 -3 14 3 25
13 33 30 25 59 -31 109 -28 25 -54 46 -58 46 -3 0 -19 -11 -34 -25z m61 -21
c25 -17 30 -62 7 -70 -17 -7 -63 20 -72 42 -6 16 13 44 31 44 6 0 22 -7 34
-16z"/>
<path d="M3170 718 c-28 -31 -25 -46 4 -18 15 13 31 20 41 16 14 -5 13 -9 -6
-35 -27 -37 -22 -65 13 -69 19 -2 31 3 40 17 7 12 18 21 25 21 23 0 14 17 -27
54 -46 42 -62 44 -90 14z m88 -56 c4 -26 -35 -51 -44 -28 -7 19 14 58 29 53 7
-2 13 -13 15 -25z"/>
<path d="M848 715 c-16 -29 -49 -148 -44 -161 5 -13 15 -10 64 17 74 40 97 57
89 65 -3 4 -28 -7 -54 -23 -62 -38 -87 -47 -81 -31 23 62 39 120 36 130 -3 7
-7 8 -10 3z"/>
<path d="M647 694 c-8 -8 1 -24 14 -24 5 0 9 7 9 15 0 15 -12 20 -23 9z"/>
<path d="M3095 644 c-17 -26 -17 -27 24 -67 22 -23 44 -38 47 -34 4 4 -7 23
-26 42 -30 31 -32 37 -22 60 15 33 -1 32 -23 -1z"/>
<path d="M3036 591 c-16 -18 -16 -22 9 -70 14 -28 30 -51 35 -51 16 0 11 18
-16 60 -26 39 -26 41 -9 60 10 11 14 20 8 20 -5 0 -18 -9 -27 -19z"/>
<path d="M916 536 c-39 -48 -43 -56 -23 -56 6 0 27 23 45 50 40 62 27 65 -22
6z"/>
<path d="M1090 543 c0 -5 -4 -14 -9 -22 -8 -12 -12 -12 -26 3 -24 24 -64 16
-88 -16 -26 -35 -14 -81 21 -86 12 -2 22 -8 22 -13 0 -5 4 -9 8 -9 9 0 92 126
92 141 0 11 -20 13 -20 2z m-44 -67 c-8 -33 -42 -52 -62 -35 -21 17 -17 37 12
66 23 23 27 24 41 10 10 -10 13 -24 9 -41z"/>
<path d="M2822 509 c-29 -17 -51 -33 -48 -36 2 -3 13 0 24 6 12 6 23 11 26 11
2 0 19 -27 38 -60 18 -33 36 -60 40 -60 13 0 10 8 -24 71 l-33 59 25 20 c38
30 12 23 -48 -11z"/>
<path d="M2916 525 c-25 -19 -15 -31 12 -14 11 7 28 9 38 5 17 -7 16 -10 -15
-35 -26 -21 -32 -32 -27 -48 12 -39 39 -38 90 1 18 15 18 16 -8 61 -29 48 -54
57 -90 30z m79 -55 c9 -14 -13 -50 -31 -50 -24 0 -30 31 -9 46 22 17 32 17 40
4z"/>
<path d="M1126 472 c-3 -5 6 -14 19 -20 15 -7 25 -20 25 -32 0 -24 1 -24 -40
-3 -32 16 -34 15 -52 -6 -21 -27 -11 -56 24 -67 13 -4 26 -11 29 -17 9 -13 59
62 59 89 0 28 -53 74 -64 56z m9 -75 c21 -16 13 -37 -15 -37 -22 0 -34 15 -26
35 7 19 17 19 41 2z"/>
<path d="M1229 383 c-12 -38 -24 -74 -27 -80 -2 -7 0 -13 6 -13 6 0 20 30 33
68 12 37 24 73 27 80 2 6 0 12 -6 12 -6 0 -20 -30 -33 -67z"/>
<path d="M1380 400 c0 -5 5 -10 10 -10 6 0 10 5 10 10 0 6 -4 10 -10 10 -5 0
-10 -4 -10 -10z"/>
<path d="M1351 309 c-12 -36 -16 -59 -9 -57 10 4 21 28 42 96 4 12 3 22 -2 22
-6 0 -19 -27 -31 -61z"/>
<path d="M1491 292 c-11 -37 -21 -72 -21 -78 0 -6 18 -17 41 -24 53 -18 74 -5
73 41 0 19 3 36 7 39 8 5 12 27 10 48 -1 12 -58 42 -79 42 -5 0 -19 -31 -31
-68z m70 38 c22 -12 26 -50 5 -50 -27 0 -46 12 -46 29 0 31 11 36 41 21z m-16
-70 c20 -7 26 -16 23 -33 -2 -18 -9 -22 -36 -20 -42 1 -45 4 -36 37 7 29 11
30 49 16z"/>
<path d="M2539 343 c-13 -9 -26 -18 -28 -19 -7 -6 41 -114 50 -109 4 3 1 21
-7 40 -19 46 -18 72 3 84 10 5 15 12 12 15 -3 3 -16 -2 -30 -11z"/>
<path d="M2693 343 c-14 -5 -18 -23 -5 -23 5 0 17 7 28 15 14 11 15 14 4 14
-8 0 -21 -3 -27 -6z"/>
<path d="M2397 292 c-10 -10 -17 -33 -17 -50 0 -42 36 -67 85 -58 50 10 56 28
6 20 -27 -4 -46 -2 -56 6 -24 20 -18 27 30 39 50 12 54 20 27 44 -24 22 -55
21 -75 -1z m67 -22 c-5 -4 -21 -10 -36 -14 -21 -5 -28 -3 -28 8 0 22 31 36 53
24 11 -5 15 -13 11 -18z"/>
<path d="M1655 280 c-3 -6 4 -10 17 -10 13 0 29 -5 36 -12 23 -23 13 -35 -29
-34 -53 1 -73 -22 -44 -54 13 -15 26 -19 42 -15 13 3 23 1 23 -5 0 -5 4 -10 8
-10 11 0 33 96 26 114 -3 8 -19 19 -36 25 -38 13 -35 13 -43 1z m55 -78 c0
-14 -23 -32 -41 -32 -21 0 -33 16 -24 30 7 12 65 14 65 2z"/>
<path d="M2328 285 c-3 -3 -2 -24 3 -47 11 -47 -2 -71 -35 -66 -16 2 -23 14
-30 51 -5 26 -13 47 -18 47 -11 0 -10 -27 3 -72 11 -42 47 -60 74 -38 8 6 19
8 26 4 9 -5 10 6 5 46 -8 56 -18 85 -28 75z"/>
<path d="M2112 247 c-22 -26 -25 -67 -7 -93 14 -22 22 -25 51 -21 32 5 35 4
41 -24 3 -16 10 -28 15 -27 11 4 12 7 3 61 -16 100 -22 112 -59 114 -18 2 -38
-3 -44 -10z m72 -43 c7 -28 -15 -64 -40 -64 -31 0 -44 68 -18 94 20 21 49 6
58 -30z"/>
<path d="M1779 205 c-6 -22 -13 -48 -16 -59 -3 -12 -1 -17 8 -14 7 2 17 24 23
49 9 34 16 45 34 47 33 5 27 22 -8 19 -27 -2 -32 -7 -41 -42z"/>
<path d="M1905 240 c-3 -5 -12 -7 -20 -3 -12 4 -15 -6 -15 -56 0 -75 18 -81
22 -8 3 45 6 52 26 55 12 2 22 8 22 13 0 12 -27 12 -35 -1z"/>
<path d="M1965 240 c-4 -7 2 -9 19 -4 16 4 32 1 41 -6 23 -19 18 -30 -14 -30
-37 0 -65 -34 -50 -62 8 -14 20 -18 54 -16 l45 3 0 47 c0 29 -6 52 -16 62 -17
18 -69 21 -79 6z m75 -69 c0 -17 -30 -40 -45 -35 -8 4 -15 15 -15 25 0 14 7
19 30 19 17 0 30 -4 30 -9z"/>
<path d="M2251 3459 c-42 -46 -62 -192 -36 -279 9 -30 20 -75 25 -100 11 -60
46 -137 112 -246 57 -95 194 -284 206 -284 4 0 36 -27 72 -59 36 -33 76 -65
90 -73 24 -12 100 -66 110 -78 8 -10 172 -91 215 -107 42 -15 81 -24 230 -52
115 -22 158 -13 187 39 15 27 18 50 15 100 -7 128 -69 273 -213 500 -12 19
-23 40 -25 46 -2 7 -31 42 -64 80 -182 206 -337 325 -550 421 -128 58 -151 67
-225 86 -100 27 -128 28 -149 6z m272 -78 c34 -15 73 -32 87 -36 92 -29 278
-151 393 -257 37 -35 73 -68 80 -73 17 -14 71 -85 85 -112 16 -29 15 -36 -3
-29 -10 4 -19 -2 -24 -17 -15 -38 -99 -87 -150 -87 -51 0 -106 -23 -138 -56
-49 -52 -71 -186 -42 -257 15 -36 8 -42 -30 -23 -71 37 -291 238 -291 266 0
17 53 35 132 44 121 14 153 51 153 176 0 139 -43 186 -202 221 -103 23 -151
55 -171 115 -12 36 -10 123 4 146 10 16 57 8 117 -21z m-183 -351 c14 -14 20
-33 20 -65 0 -25 -2 -45 -5 -45 -8 0 -38 64 -46 98 -8 37 2 41 31 12z m1035
-460 c18 -36 40 -89 50 -119 17 -52 17 -55 -1 -68 -10 -7 -40 -13 -67 -13 -40
0 -53 5 -77 28 -43 44 -54 99 -35 175 9 34 26 72 38 85 l22 23 18 -23 c11 -13
34 -52 52 -88z m-281 -259 c52 -22 67 -41 34 -41 -32 1 -160 52 -165 66 -5 16
74 0 131 -25z"/>
<path d="M1685 3465 c-5 -2 -64 -20 -130 -41 -325 -104 -575 -294 -798 -606
-52 -73 -155 -279 -186 -375 -24 -72 -36 -161 -27 -197 17 -70 128 -77 328
-20 67 19 127 39 132 44 6 6 19 10 29 10 10 0 31 8 45 18 15 10 52 31 82 46
157 82 422 324 480 440 11 22 36 66 55 96 19 30 47 87 61 125 15 39 32 82 39
97 7 15 18 51 25 80 7 29 16 62 19 73 16 42 12 125 -6 156 -25 43 -99 70 -148
54z m109 -47 c22 -31 20 -110 -5 -199 -11 -41 -24 -87 -28 -104 -6 -27 -11
-30 -41 -27 -54 4 -106 40 -127 85 -27 60 -25 176 3 214 25 33 72 52 136 52
37 1 50 -3 62 -21z m-629 -247 c-3 -6 9 -25 28 -43 27 -27 45 -35 102 -44 39
-6 93 -22 120 -35 42 -20 54 -33 77 -79 33 -66 35 -123 8 -167 -28 -47 -57
-61 -145 -74 -160 -22 -221 -84 -213 -217 3 -48 9 -68 23 -78 24 -18 17 -25
-72 -68 -69 -34 -72 -34 -139 -25 -131 19 -158 28 -186 61 -37 43 -44 99 -22
178 15 55 22 66 61 90 24 16 67 34 96 41 134 32 204 88 225 180 23 100 14 154
-35 195 l-25 21 36 37 c33 32 77 51 61 27z m-514 -832 c16 -11 38 -38 49 -59
20 -39 20 -39 1 -50 -30 -15 -82 -12 -103 7 -32 28 -20 123 15 123 5 0 22 -9
38 -21z"/>
<path d="M898 2133 c6 -2 12 -10 12 -18 0 -22 191 -87 208 -71 2 3 -7 7 -22
11 -14 3 -38 8 -53 11 -41 8 -123 45 -123 55 0 5 15 6 33 4 28 -4 29 -4 7 4
-26 9 -85 13 -62 4z"/>
<path d="M1540 1983 c0 -5 27 -23 60 -41 33 -19 60 -30 60 -25 0 4 -27 23 -60
41 -33 18 -60 29 -60 25z"/>
</g>
</svg>
